<mxfile host="Electron" modified="2024-03-07T10:09:39.762Z" agent="Mozilla/5.0 (X11; Linux x86_64) AppleWebKit/537.36 (KHTML, like Gecko) draw.io/23.1.5 Chrome/120.0.6099.109 Electron/28.2.5 Safari/537.36" etag="bMMOqqYQmmwxKzXu-jjI" version="23.1.5" type="device">
  <diagram name="Page-1" id="jwIUeSGBcwA--1RXkkxF">
    <mxGraphModel dx="1078" dy="548" grid="1" gridSize="10" guides="1" tooltips="1" connect="1" arrows="1" fold="1" page="1" pageScale="1" pageWidth="1169" pageHeight="827" math="0" shadow="0">
      <root>
        <mxCell id="0" />
        <mxCell id="1" parent="0" />
        <mxCell id="cXgWGchafQ5C-qkIUdc8-190" value="" style="group" parent="1" vertex="1" connectable="0">
          <mxGeometry x="1560" y="520" width="180" height="150" as="geometry" />
        </mxCell>
        <mxCell id="cXgWGchafQ5C-qkIUdc8-164" value="" style="whiteSpace=wrap;html=1;" parent="cXgWGchafQ5C-qkIUdc8-190" vertex="1">
          <mxGeometry y="20" width="180" height="130" as="geometry" />
        </mxCell>
        <mxCell id="cXgWGchafQ5C-qkIUdc8-177" value="clk_i(1)" style="text;html=1;align=left;verticalAlign=middle;resizable=1;points=[];autosize=0;strokeColor=none;fillColor=none;movable=1;rotatable=1;deletable=1;editable=1;locked=0;connectable=1;" parent="cXgWGchafQ5C-qkIUdc8-190" vertex="1">
          <mxGeometry y="30" width="50" height="20" as="geometry" />
        </mxCell>
        <mxCell id="cXgWGchafQ5C-qkIUdc8-178" value="reset_i(1)" style="text;html=1;align=left;verticalAlign=middle;resizable=1;points=[];autosize=0;strokeColor=none;fillColor=none;movable=1;rotatable=1;deletable=1;editable=1;locked=0;connectable=1;" parent="cXgWGchafQ5C-qkIUdc8-190" vertex="1">
          <mxGeometry y="60" width="50" height="20" as="geometry" />
        </mxCell>
        <mxCell id="cXgWGchafQ5C-qkIUdc8-179" value="IR_i(14)" style="text;html=1;align=left;verticalAlign=middle;resizable=1;points=[];autosize=0;strokeColor=none;fillColor=none;movable=1;rotatable=1;deletable=1;editable=1;locked=0;connectable=1;" parent="cXgWGchafQ5C-qkIUdc8-190" vertex="1">
          <mxGeometry y="90" width="50" height="20" as="geometry" />
        </mxCell>
        <mxCell id="cXgWGchafQ5C-qkIUdc8-181" value="Instruction_Register" style="text;html=1;align=left;verticalAlign=middle;resizable=1;points=[];autosize=0;strokeColor=none;fillColor=none;movable=1;rotatable=1;deletable=1;editable=1;locked=0;connectable=1;" parent="cXgWGchafQ5C-qkIUdc8-190" vertex="1">
          <mxGeometry width="120" height="20" as="geometry" />
        </mxCell>
        <mxCell id="cXgWGchafQ5C-qkIUdc8-184" value="IR_load_i(1)" style="text;html=1;align=left;verticalAlign=middle;resizable=1;points=[];autosize=0;strokeColor=none;fillColor=none;movable=1;rotatable=1;deletable=1;editable=1;locked=0;connectable=1;" parent="cXgWGchafQ5C-qkIUdc8-190" vertex="1">
          <mxGeometry y="120" width="70" height="20" as="geometry" />
        </mxCell>
        <mxCell id="cXgWGchafQ5C-qkIUdc8-185" value="operande_o(8)" style="text;html=1;align=right;verticalAlign=middle;resizable=1;points=[];autosize=0;strokeColor=none;fillColor=none;movable=1;rotatable=1;deletable=1;editable=1;locked=0;connectable=1;" parent="cXgWGchafQ5C-qkIUdc8-190" vertex="1">
          <mxGeometry x="90" y="60" width="90" height="20" as="geometry" />
        </mxCell>
        <mxCell id="cXgWGchafQ5C-qkIUdc8-186" value="opcode_o(6)" style="text;html=1;align=right;verticalAlign=middle;resizable=1;points=[];autosize=0;strokeColor=none;fillColor=none;movable=1;rotatable=1;deletable=1;editable=1;locked=0;connectable=1;" parent="cXgWGchafQ5C-qkIUdc8-190" vertex="1">
          <mxGeometry x="90" y="90" width="90" height="20" as="geometry" />
        </mxCell>
        <mxCell id="cXgWGchafQ5C-qkIUdc8-197" value="clk_i(1)" style="text;html=1;align=right;verticalAlign=middle;resizable=1;points=[];autosize=0;strokeColor=none;fillColor=none;movable=1;rotatable=1;deletable=1;editable=1;locked=0;connectable=1;" parent="1" vertex="1">
          <mxGeometry x="40" y="760" width="70" height="20" as="geometry" />
        </mxCell>
        <mxCell id="cXgWGchafQ5C-qkIUdc8-198" value="reset_i(1)" style="text;html=1;align=right;verticalAlign=middle;resizable=1;points=[];autosize=0;strokeColor=none;fillColor=none;movable=1;rotatable=1;deletable=1;editable=1;locked=0;connectable=1;" parent="1" vertex="1">
          <mxGeometry x="50" y="790" width="60" height="20" as="geometry" />
        </mxCell>
        <mxCell id="cXgWGchafQ5C-qkIUdc8-200" value="IR_i(14)" style="text;html=1;align=right;verticalAlign=middle;resizable=1;points=[];autosize=0;strokeColor=none;fillColor=none;movable=1;rotatable=1;deletable=1;editable=1;locked=0;connectable=1;" parent="1" vertex="1">
          <mxGeometry x="60" y="820" width="50" height="20" as="geometry" />
        </mxCell>
        <mxCell id="cXgWGchafQ5C-qkIUdc8-201" value="data_i(8)" style="text;html=1;align=right;verticalAlign=middle;resizable=1;points=[];autosize=0;strokeColor=none;fillColor=none;movable=1;rotatable=1;deletable=1;editable=1;locked=0;connectable=1;" parent="1" vertex="1">
          <mxGeometry x="50" y="850" width="60" height="20" as="geometry" />
        </mxCell>
        <mxCell id="cXgWGchafQ5C-qkIUdc8-246" value="" style="group" parent="1" vertex="1" connectable="0">
          <mxGeometry x="1070" y="190" width="180" height="270" as="geometry" />
        </mxCell>
        <mxCell id="cXgWGchafQ5C-qkIUdc8-241" value="" style="whiteSpace=wrap;html=1;" parent="cXgWGchafQ5C-qkIUdc8-246" vertex="1">
          <mxGeometry y="20" width="180" height="250" as="geometry" />
        </mxCell>
        <mxCell id="cXgWGchafQ5C-qkIUdc8-228" value="clk_i(1)" style="text;html=1;align=left;verticalAlign=middle;resizable=1;points=[];autosize=0;strokeColor=none;fillColor=none;movable=1;rotatable=1;deletable=1;editable=1;locked=0;connectable=1;" parent="cXgWGchafQ5C-qkIUdc8-246" vertex="1">
          <mxGeometry y="90" width="50" height="20" as="geometry" />
        </mxCell>
        <mxCell id="cXgWGchafQ5C-qkIUdc8-229" value="reset_i(1)" style="text;html=1;align=left;verticalAlign=middle;resizable=1;points=[];autosize=0;strokeColor=none;fillColor=none;movable=1;rotatable=1;deletable=1;editable=1;locked=0;connectable=1;" parent="cXgWGchafQ5C-qkIUdc8-246" vertex="1">
          <mxGeometry y="120" width="60" height="20" as="geometry" />
        </mxCell>
        <mxCell id="cXgWGchafQ5C-qkIUdc8-230" value="opcode_i(6)" style="text;html=1;align=left;verticalAlign=middle;resizable=1;points=[];autosize=0;strokeColor=none;fillColor=none;movable=1;rotatable=1;deletable=1;editable=1;locked=0;connectable=1;" parent="cXgWGchafQ5C-qkIUdc8-246" vertex="1">
          <mxGeometry y="150" width="70" height="20" as="geometry" />
        </mxCell>
        <mxCell id="cXgWGchafQ5C-qkIUdc8-231" value="CCR_i(4)" style="text;html=1;align=left;verticalAlign=middle;resizable=1;points=[];autosize=0;strokeColor=none;fillColor=none;movable=1;rotatable=1;deletable=1;editable=1;locked=0;connectable=1;" parent="cXgWGchafQ5C-qkIUdc8-246" vertex="1">
          <mxGeometry y="180" width="60" height="20" as="geometry" />
        </mxCell>
        <mxCell id="cXgWGchafQ5C-qkIUdc8-233" value="PC_inc_o(1)" style="text;html=1;align=right;verticalAlign=middle;resizable=1;points=[];autosize=0;strokeColor=none;fillColor=none;movable=1;rotatable=1;deletable=1;editable=1;locked=0;connectable=1;" parent="cXgWGchafQ5C-qkIUdc8-246" vertex="1">
          <mxGeometry x="110" y="30" width="70" height="20" as="geometry" />
        </mxCell>
        <mxCell id="cXgWGchafQ5C-qkIUdc8-234" value="PC_load_o(1)" style="text;html=1;align=right;verticalAlign=middle;resizable=1;points=[];autosize=0;strokeColor=none;fillColor=none;movable=1;rotatable=1;deletable=1;editable=1;locked=0;connectable=1;" parent="cXgWGchafQ5C-qkIUdc8-246" vertex="1">
          <mxGeometry x="100" y="60" width="80" height="20" as="geometry" />
        </mxCell>
        <mxCell id="cXgWGchafQ5C-qkIUdc8-235" value="IR_load_o(1)" style="text;html=1;align=right;verticalAlign=middle;resizable=1;points=[];autosize=0;strokeColor=none;fillColor=none;movable=1;rotatable=1;deletable=1;editable=1;locked=0;connectable=1;" parent="cXgWGchafQ5C-qkIUdc8-246" vertex="1">
          <mxGeometry x="100" y="90" width="80" height="20" as="geometry" />
        </mxCell>
        <mxCell id="cXgWGchafQ5C-qkIUdc8-236" value="oper_sel_o(3)" style="text;html=1;align=right;verticalAlign=middle;resizable=1;points=[];autosize=0;strokeColor=none;fillColor=none;movable=1;rotatable=1;deletable=1;editable=1;locked=0;connectable=1;" parent="cXgWGchafQ5C-qkIUdc8-246" vertex="1">
          <mxGeometry x="100" y="120" width="80" height="20" as="geometry" />
        </mxCell>
        <mxCell id="cXgWGchafQ5C-qkIUdc8-237" value="oper_load_o(1)" style="text;html=1;align=right;verticalAlign=middle;resizable=1;points=[];autosize=0;strokeColor=none;fillColor=none;movable=1;rotatable=1;deletable=1;editable=1;locked=0;connectable=1;" parent="cXgWGchafQ5C-qkIUdc8-246" vertex="1">
          <mxGeometry x="90" y="150" width="90" height="20" as="geometry" />
        </mxCell>
        <mxCell id="cXgWGchafQ5C-qkIUdc8-238" value="Accu_load_o(1)" style="text;html=1;align=right;verticalAlign=middle;resizable=1;points=[];autosize=0;strokeColor=none;fillColor=none;movable=1;rotatable=1;deletable=1;editable=1;locked=0;connectable=1;" parent="cXgWGchafQ5C-qkIUdc8-246" vertex="1">
          <mxGeometry x="90" y="180" width="90" height="20" as="geometry" />
        </mxCell>
        <mxCell id="cXgWGchafQ5C-qkIUdc8-239" value="CCR_load_o(1)" style="text;html=1;align=right;verticalAlign=middle;resizable=1;points=[];autosize=0;strokeColor=none;fillColor=none;movable=1;rotatable=1;deletable=1;editable=1;locked=0;connectable=1;" parent="cXgWGchafQ5C-qkIUdc8-246" vertex="1">
          <mxGeometry x="90" y="210" width="90" height="20" as="geometry" />
        </mxCell>
        <mxCell id="cXgWGchafQ5C-qkIUdc8-240" value="data_wr_o(1)" style="text;html=1;align=right;verticalAlign=middle;resizable=1;points=[];autosize=0;strokeColor=none;fillColor=none;movable=1;rotatable=1;deletable=1;editable=1;locked=0;connectable=1;" parent="cXgWGchafQ5C-qkIUdc8-246" vertex="1">
          <mxGeometry x="100" y="240" width="80" height="20" as="geometry" />
        </mxCell>
        <mxCell id="cXgWGchafQ5C-qkIUdc8-242" value="Sequenceur" style="text;html=1;align=left;verticalAlign=middle;resizable=1;points=[];autosize=0;strokeColor=none;fillColor=none;movable=1;rotatable=1;deletable=1;editable=1;locked=0;connectable=1;" parent="cXgWGchafQ5C-qkIUdc8-246" vertex="1">
          <mxGeometry width="80" height="20" as="geometry" />
        </mxCell>
        <mxCell id="cXgWGchafQ5C-qkIUdc8-264" value="" style="group" parent="1" vertex="1" connectable="0">
          <mxGeometry x="1920" y="570" width="170" height="150" as="geometry" />
        </mxCell>
        <mxCell id="cXgWGchafQ5C-qkIUdc8-262" value="" style="whiteSpace=wrap;html=1;" parent="cXgWGchafQ5C-qkIUdc8-264" vertex="1">
          <mxGeometry y="20" width="170" height="130" as="geometry" />
        </mxCell>
        <mxCell id="cXgWGchafQ5C-qkIUdc8-253" value="clk_i(1)" style="text;html=1;align=left;verticalAlign=middle;resizable=1;points=[];autosize=0;strokeColor=none;fillColor=none;movable=1;rotatable=1;deletable=1;editable=1;locked=0;connectable=1;" parent="cXgWGchafQ5C-qkIUdc8-264" vertex="1">
          <mxGeometry y="30" width="50" height="20" as="geometry" />
        </mxCell>
        <mxCell id="cXgWGchafQ5C-qkIUdc8-257" value="reset_i(1)" style="text;html=1;align=left;verticalAlign=middle;resizable=1;points=[];autosize=0;strokeColor=none;fillColor=none;movable=1;rotatable=1;deletable=1;editable=1;locked=0;connectable=1;" parent="cXgWGchafQ5C-qkIUdc8-264" vertex="1">
          <mxGeometry y="60" width="60" height="20" as="geometry" />
        </mxCell>
        <mxCell id="cXgWGchafQ5C-qkIUdc8-258" value="CCR_load_i(1)" style="text;html=1;align=left;verticalAlign=middle;resizable=1;points=[];autosize=0;strokeColor=none;fillColor=none;movable=1;rotatable=1;deletable=1;editable=1;locked=0;connectable=1;" parent="cXgWGchafQ5C-qkIUdc8-264" vertex="1">
          <mxGeometry y="90" width="90" height="20" as="geometry" />
        </mxCell>
        <mxCell id="cXgWGchafQ5C-qkIUdc8-259" value="CCR_i(4)" style="text;html=1;align=left;verticalAlign=middle;resizable=1;points=[];autosize=0;strokeColor=none;fillColor=none;movable=1;rotatable=1;deletable=1;editable=1;locked=0;connectable=1;" parent="cXgWGchafQ5C-qkIUdc8-264" vertex="1">
          <mxGeometry y="120" width="60" height="20" as="geometry" />
        </mxCell>
        <mxCell id="cXgWGchafQ5C-qkIUdc8-260" value="CCR_o(4)" style="text;html=1;align=right;verticalAlign=middle;resizable=1;points=[];autosize=0;strokeColor=none;fillColor=none;movable=1;rotatable=1;deletable=1;editable=1;locked=0;connectable=1;" parent="cXgWGchafQ5C-qkIUdc8-264" vertex="1">
          <mxGeometry x="110" y="60" width="60" height="20" as="geometry" />
        </mxCell>
        <mxCell id="cXgWGchafQ5C-qkIUdc8-263" value="Status_Register" style="text;html=1;align=left;verticalAlign=middle;resizable=1;points=[];autosize=0;strokeColor=none;fillColor=none;movable=1;rotatable=1;deletable=1;editable=1;locked=0;connectable=1;" parent="cXgWGchafQ5C-qkIUdc8-264" vertex="1">
          <mxGeometry width="100" height="20" as="geometry" />
        </mxCell>
        <mxCell id="QUcATvjl3TqOGIMhLpuG-12" value="" style="group" parent="1" vertex="1" connectable="0">
          <mxGeometry x="1610" y="840" width="150" height="140" as="geometry" />
        </mxCell>
        <mxCell id="QUcATvjl3TqOGIMhLpuG-3" value="" style="whiteSpace=wrap;html=1;container=0;" parent="QUcATvjl3TqOGIMhLpuG-12" vertex="1">
          <mxGeometry x="1" y="20" width="149" height="120" as="geometry" />
        </mxCell>
        <mxCell id="QUcATvjl3TqOGIMhLpuG-4" value="sel_i(3)" style="text;html=1;align=left;verticalAlign=middle;resizable=1;points=[];autosize=0;strokeColor=none;fillColor=none;movable=1;rotatable=1;deletable=1;editable=1;locked=0;connectable=1;container=0;" parent="QUcATvjl3TqOGIMhLpuG-12" vertex="1">
          <mxGeometry y="30" width="50" height="16.666666666666668" as="geometry" />
        </mxCell>
        <mxCell id="QUcATvjl3TqOGIMhLpuG-5" value="Accu_i(8)" style="text;html=1;align=left;verticalAlign=middle;resizable=1;points=[];autosize=0;strokeColor=none;fillColor=none;movable=1;rotatable=1;deletable=1;editable=1;locked=0;connectable=1;container=0;" parent="QUcATvjl3TqOGIMhLpuG-12" vertex="1">
          <mxGeometry y="60" width="60" height="16.666666666666668" as="geometry" />
        </mxCell>
        <mxCell id="QUcATvjl3TqOGIMhLpuG-6" value="const_i(8)" style="text;html=1;align=left;verticalAlign=middle;resizable=1;points=[];autosize=0;strokeColor=none;fillColor=none;movable=1;rotatable=1;deletable=1;editable=1;locked=0;connectable=1;container=0;" parent="QUcATvjl3TqOGIMhLpuG-12" vertex="1">
          <mxGeometry y="90" width="80" height="16.666666666666668" as="geometry" />
        </mxCell>
        <mxCell id="QUcATvjl3TqOGIMhLpuG-7" value="data_i(8)" style="text;html=1;align=left;verticalAlign=middle;resizable=1;points=[];autosize=0;strokeColor=none;fillColor=none;movable=1;rotatable=1;deletable=1;editable=1;locked=0;connectable=1;container=0;" parent="QUcATvjl3TqOGIMhLpuG-12" vertex="1">
          <mxGeometry x="1" y="113.33000000000001" width="80" height="16.666666666666668" as="geometry" />
        </mxCell>
        <mxCell id="QUcATvjl3TqOGIMhLpuG-9" value="oper1_o(8)" style="text;html=1;align=right;verticalAlign=middle;resizable=1;points=[];autosize=0;strokeColor=none;fillColor=none;movable=1;rotatable=1;deletable=1;editable=1;locked=0;connectable=1;container=0;" parent="QUcATvjl3TqOGIMhLpuG-12" vertex="1">
          <mxGeometry x="80" y="60" width="70" height="16.67" as="geometry" />
        </mxCell>
        <mxCell id="QUcATvjl3TqOGIMhLpuG-10" value="Operandes_Multiplexer" style="text;html=1;align=left;verticalAlign=middle;resizable=1;points=[];autosize=0;strokeColor=none;fillColor=none;movable=1;rotatable=1;deletable=1;editable=1;locked=0;connectable=1;container=0;" parent="QUcATvjl3TqOGIMhLpuG-12" vertex="1">
          <mxGeometry width="110" height="16.666666666666668" as="geometry" />
        </mxCell>
        <mxCell id="QUcATvjl3TqOGIMhLpuG-11" value="oper2_o(8)" style="text;html=1;align=right;verticalAlign=middle;resizable=1;points=[];autosize=0;strokeColor=none;fillColor=none;movable=1;rotatable=1;deletable=1;editable=1;locked=0;connectable=1;container=0;" parent="QUcATvjl3TqOGIMhLpuG-12" vertex="1">
          <mxGeometry x="80" y="89.99999999999997" width="70" height="16.67" as="geometry" />
        </mxCell>
        <mxCell id="iEqDr9kL7bFx6IKYGzxQ-9" value="" style="group" vertex="1" connectable="0" parent="1">
          <mxGeometry x="1210" y="1020" width="170" height="150" as="geometry" />
        </mxCell>
        <mxCell id="iEqDr9kL7bFx6IKYGzxQ-2" value="" style="whiteSpace=wrap;html=1;" vertex="1" parent="iEqDr9kL7bFx6IKYGzxQ-9">
          <mxGeometry y="20" width="170" height="130" as="geometry" />
        </mxCell>
        <mxCell id="iEqDr9kL7bFx6IKYGzxQ-3" value="clk_i(1)" style="text;html=1;align=left;verticalAlign=middle;resizable=1;points=[];autosize=0;strokeColor=none;fillColor=none;movable=1;rotatable=1;deletable=1;editable=1;locked=0;connectable=1;" vertex="1" parent="iEqDr9kL7bFx6IKYGzxQ-9">
          <mxGeometry y="30" width="50" height="20" as="geometry" />
        </mxCell>
        <mxCell id="iEqDr9kL7bFx6IKYGzxQ-4" value="reset_i(1)" style="text;html=1;align=left;verticalAlign=middle;resizable=1;points=[];autosize=0;strokeColor=none;fillColor=none;movable=1;rotatable=1;deletable=1;editable=1;locked=0;connectable=1;" vertex="1" parent="iEqDr9kL7bFx6IKYGzxQ-9">
          <mxGeometry y="60" width="60" height="20" as="geometry" />
        </mxCell>
        <mxCell id="iEqDr9kL7bFx6IKYGzxQ-5" value="Accu_load_i(1)" style="text;html=1;align=left;verticalAlign=middle;resizable=1;points=[];autosize=0;strokeColor=none;fillColor=none;movable=1;rotatable=1;deletable=1;editable=1;locked=0;connectable=1;" vertex="1" parent="iEqDr9kL7bFx6IKYGzxQ-9">
          <mxGeometry y="90" width="90" height="20" as="geometry" />
        </mxCell>
        <mxCell id="iEqDr9kL7bFx6IKYGzxQ-6" value="Accu_in(8)" style="text;html=1;align=left;verticalAlign=middle;resizable=1;points=[];autosize=0;strokeColor=none;fillColor=none;movable=1;rotatable=1;deletable=1;editable=1;locked=0;connectable=1;" vertex="1" parent="iEqDr9kL7bFx6IKYGzxQ-9">
          <mxGeometry y="120" width="60" height="20" as="geometry" />
        </mxCell>
        <mxCell id="iEqDr9kL7bFx6IKYGzxQ-7" value="Accu_o(8)" style="text;html=1;align=right;verticalAlign=middle;resizable=1;points=[];autosize=0;strokeColor=none;fillColor=none;movable=1;rotatable=1;deletable=1;editable=1;locked=0;connectable=1;" vertex="1" parent="iEqDr9kL7bFx6IKYGzxQ-9">
          <mxGeometry x="110" y="60" width="60" height="20" as="geometry" />
        </mxCell>
        <mxCell id="iEqDr9kL7bFx6IKYGzxQ-8" value="W_Register" style="text;html=1;align=left;verticalAlign=middle;resizable=1;points=[];autosize=0;strokeColor=none;fillColor=none;movable=1;rotatable=1;deletable=1;editable=1;locked=0;connectable=1;" vertex="1" parent="iEqDr9kL7bFx6IKYGzxQ-9">
          <mxGeometry width="100" height="20" as="geometry" />
        </mxCell>
        <mxCell id="iEqDr9kL7bFx6IKYGzxQ-20" value="" style="group" vertex="1" connectable="0" parent="1">
          <mxGeometry x="1700" y="1070" width="170" height="180" as="geometry" />
        </mxCell>
        <mxCell id="iEqDr9kL7bFx6IKYGzxQ-11" value="" style="whiteSpace=wrap;html=1;" vertex="1" parent="iEqDr9kL7bFx6IKYGzxQ-20">
          <mxGeometry y="20" width="170" height="160" as="geometry" />
        </mxCell>
        <mxCell id="iEqDr9kL7bFx6IKYGzxQ-12" value="clk_i(1)" style="text;html=1;align=left;verticalAlign=middle;resizable=1;points=[];autosize=0;strokeColor=none;fillColor=none;movable=1;rotatable=1;deletable=1;editable=1;locked=0;connectable=1;" vertex="1" parent="iEqDr9kL7bFx6IKYGzxQ-20">
          <mxGeometry y="30" width="50" height="20" as="geometry" />
        </mxCell>
        <mxCell id="iEqDr9kL7bFx6IKYGzxQ-13" value="reset_i(1)" style="text;html=1;align=left;verticalAlign=middle;resizable=1;points=[];autosize=0;strokeColor=none;fillColor=none;movable=1;rotatable=1;deletable=1;editable=1;locked=0;connectable=1;" vertex="1" parent="iEqDr9kL7bFx6IKYGzxQ-20">
          <mxGeometry y="60" width="60" height="20" as="geometry" />
        </mxCell>
        <mxCell id="iEqDr9kL7bFx6IKYGzxQ-14" value="oper1_i(8)" style="text;html=1;align=left;verticalAlign=middle;resizable=1;points=[];autosize=0;strokeColor=none;fillColor=none;movable=1;rotatable=1;deletable=1;editable=1;locked=0;connectable=1;" vertex="1" parent="iEqDr9kL7bFx6IKYGzxQ-20">
          <mxGeometry y="90" width="60" height="20" as="geometry" />
        </mxCell>
        <mxCell id="iEqDr9kL7bFx6IKYGzxQ-15" value="oper2_i(8)" style="text;html=1;align=left;verticalAlign=middle;resizable=1;points=[];autosize=0;strokeColor=none;fillColor=none;movable=1;rotatable=1;deletable=1;editable=1;locked=0;connectable=1;" vertex="1" parent="iEqDr9kL7bFx6IKYGzxQ-20">
          <mxGeometry y="120" width="60" height="20" as="geometry" />
        </mxCell>
        <mxCell id="iEqDr9kL7bFx6IKYGzxQ-16" value="operande1_o(8)" style="text;html=1;align=right;verticalAlign=middle;resizable=1;points=[];autosize=0;strokeColor=none;fillColor=none;movable=1;rotatable=1;deletable=1;editable=1;locked=0;connectable=1;" vertex="1" parent="iEqDr9kL7bFx6IKYGzxQ-20">
          <mxGeometry x="80" y="60" width="90" height="20" as="geometry" />
        </mxCell>
        <mxCell id="iEqDr9kL7bFx6IKYGzxQ-17" value="Operandes_Register" style="text;html=1;align=left;verticalAlign=middle;resizable=1;points=[];autosize=0;strokeColor=none;fillColor=none;movable=1;rotatable=1;deletable=1;editable=1;locked=0;connectable=1;" vertex="1" parent="iEqDr9kL7bFx6IKYGzxQ-20">
          <mxGeometry width="130" height="20" as="geometry" />
        </mxCell>
        <mxCell id="iEqDr9kL7bFx6IKYGzxQ-18" value="oper_load_i(1)" style="text;html=1;align=left;verticalAlign=middle;resizable=1;points=[];autosize=0;strokeColor=none;fillColor=none;movable=1;rotatable=1;deletable=1;editable=1;locked=0;connectable=1;" vertex="1" parent="iEqDr9kL7bFx6IKYGzxQ-20">
          <mxGeometry y="150" width="90" height="20" as="geometry" />
        </mxCell>
        <mxCell id="iEqDr9kL7bFx6IKYGzxQ-19" value="operande2_o(8)" style="text;html=1;align=right;verticalAlign=middle;resizable=1;points=[];autosize=0;strokeColor=none;fillColor=none;movable=1;rotatable=1;deletable=1;editable=1;locked=0;connectable=1;" vertex="1" parent="iEqDr9kL7bFx6IKYGzxQ-20">
          <mxGeometry x="80" y="90" width="90" height="20" as="geometry" />
        </mxCell>
        <mxCell id="iEqDr9kL7bFx6IKYGzxQ-21" style="edgeStyle=orthogonalEdgeStyle;rounded=0;orthogonalLoop=1;jettySize=auto;html=1;entryX=-0.012;entryY=0.5;entryDx=0;entryDy=0;entryPerimeter=0;" edge="1" parent="1" source="cXgWGchafQ5C-qkIUdc8-234" target="cXgWGchafQ5C-qkIUdc8-208">
          <mxGeometry relative="1" as="geometry">
            <mxPoint x="1670" y="540" as="targetPoint" />
            <Array as="points">
              <mxPoint x="1440" y="260" />
              <mxPoint x="1440" y="350" />
            </Array>
          </mxGeometry>
        </mxCell>
        <mxCell id="iEqDr9kL7bFx6IKYGzxQ-22" value="" style="group" vertex="1" connectable="0" parent="1">
          <mxGeometry x="1600" y="220" width="160" height="180" as="geometry" />
        </mxCell>
        <mxCell id="cXgWGchafQ5C-qkIUdc8-212" value="" style="whiteSpace=wrap;html=1;container=0;" parent="iEqDr9kL7bFx6IKYGzxQ-22" vertex="1">
          <mxGeometry x="1" y="20" width="159" height="160" as="geometry" />
        </mxCell>
        <mxCell id="cXgWGchafQ5C-qkIUdc8-206" value="clk_i(1)" style="text;html=1;align=left;verticalAlign=middle;resizable=1;points=[];autosize=0;strokeColor=none;fillColor=none;movable=1;rotatable=1;deletable=1;editable=1;locked=0;connectable=1;container=0;" parent="iEqDr9kL7bFx6IKYGzxQ-22" vertex="1">
          <mxGeometry y="30" width="50" height="20" as="geometry" />
        </mxCell>
        <mxCell id="cXgWGchafQ5C-qkIUdc8-207" value="reset_i(1)" style="text;html=1;align=left;verticalAlign=middle;resizable=1;points=[];autosize=0;strokeColor=none;fillColor=none;movable=1;rotatable=1;deletable=1;editable=1;locked=0;connectable=1;container=0;" parent="iEqDr9kL7bFx6IKYGzxQ-22" vertex="1">
          <mxGeometry y="60" width="60" height="20" as="geometry" />
        </mxCell>
        <mxCell id="cXgWGchafQ5C-qkIUdc8-208" value="PC_load_i(1)" style="text;html=1;align=left;verticalAlign=middle;resizable=1;points=[];autosize=0;strokeColor=none;fillColor=none;movable=1;rotatable=1;deletable=1;editable=1;locked=0;connectable=1;container=0;" parent="iEqDr9kL7bFx6IKYGzxQ-22" vertex="1">
          <mxGeometry y="120" width="80" height="20" as="geometry" />
        </mxCell>
        <mxCell id="cXgWGchafQ5C-qkIUdc8-209" value="PC_inc_i(1)" style="text;html=1;align=left;verticalAlign=middle;resizable=1;points=[];autosize=0;strokeColor=none;fillColor=none;movable=1;rotatable=1;deletable=1;editable=1;locked=0;connectable=1;container=0;" parent="iEqDr9kL7bFx6IKYGzxQ-22" vertex="1">
          <mxGeometry y="90" width="80" height="20" as="geometry" />
        </mxCell>
        <mxCell id="cXgWGchafQ5C-qkIUdc8-210" value="addr_i(8)" style="text;html=1;align=left;verticalAlign=middle;resizable=1;points=[];autosize=0;strokeColor=none;fillColor=none;movable=1;rotatable=1;deletable=1;editable=1;locked=0;connectable=1;container=0;" parent="iEqDr9kL7bFx6IKYGzxQ-22" vertex="1">
          <mxGeometry y="150" width="60" height="20" as="geometry" />
        </mxCell>
        <mxCell id="cXgWGchafQ5C-qkIUdc8-211" value="PC_o(1)" style="text;html=1;align=right;verticalAlign=middle;resizable=1;points=[];autosize=0;strokeColor=none;fillColor=none;movable=1;rotatable=1;deletable=1;editable=1;locked=0;connectable=1;container=0;" parent="iEqDr9kL7bFx6IKYGzxQ-22" vertex="1">
          <mxGeometry x="100" y="90" width="60" height="20" as="geometry" />
        </mxCell>
        <mxCell id="cXgWGchafQ5C-qkIUdc8-213" value="Program_Counter" style="text;html=1;align=left;verticalAlign=middle;resizable=1;points=[];autosize=0;strokeColor=none;fillColor=none;movable=1;rotatable=1;deletable=1;editable=1;locked=0;connectable=1;container=0;" parent="iEqDr9kL7bFx6IKYGzxQ-22" vertex="1">
          <mxGeometry width="110" height="20" as="geometry" />
        </mxCell>
        <mxCell id="iEqDr9kL7bFx6IKYGzxQ-23" style="edgeStyle=orthogonalEdgeStyle;rounded=0;orthogonalLoop=1;jettySize=auto;html=1;entryX=-0.002;entryY=0.542;entryDx=0;entryDy=0;entryPerimeter=0;" edge="1" parent="1" source="cXgWGchafQ5C-qkIUdc8-233" target="cXgWGchafQ5C-qkIUdc8-209">
          <mxGeometry relative="1" as="geometry">
            <Array as="points">
              <mxPoint x="1460" y="230" />
              <mxPoint x="1460" y="321" />
            </Array>
          </mxGeometry>
        </mxCell>
        <mxCell id="iEqDr9kL7bFx6IKYGzxQ-24" style="edgeStyle=orthogonalEdgeStyle;rounded=0;orthogonalLoop=1;jettySize=auto;html=1;entryX=-0.008;entryY=0.542;entryDx=0;entryDy=0;entryPerimeter=0;" edge="1" parent="1" source="cXgWGchafQ5C-qkIUdc8-235" target="cXgWGchafQ5C-qkIUdc8-184">
          <mxGeometry relative="1" as="geometry">
            <mxPoint x="1579.94" y="790" as="targetPoint" />
          </mxGeometry>
        </mxCell>
        <mxCell id="iEqDr9kL7bFx6IKYGzxQ-26" style="edgeStyle=orthogonalEdgeStyle;rounded=0;orthogonalLoop=1;jettySize=auto;html=1;entryX=-0.006;entryY=0.6;entryDx=0;entryDy=0;entryPerimeter=0;" edge="1" parent="1" source="cXgWGchafQ5C-qkIUdc8-236" target="QUcATvjl3TqOGIMhLpuG-4">
          <mxGeometry relative="1" as="geometry">
            <Array as="points">
              <mxPoint x="1380" y="320" />
              <mxPoint x="1380" y="880" />
            </Array>
          </mxGeometry>
        </mxCell>
        <mxCell id="iEqDr9kL7bFx6IKYGzxQ-27" style="edgeStyle=orthogonalEdgeStyle;rounded=0;orthogonalLoop=1;jettySize=auto;html=1;entryX=-0.015;entryY=0.466;entryDx=0;entryDy=0;entryPerimeter=0;" edge="1" parent="1" source="iEqDr9kL7bFx6IKYGzxQ-7" target="QUcATvjl3TqOGIMhLpuG-5">
          <mxGeometry relative="1" as="geometry" />
        </mxCell>
        <mxCell id="iEqDr9kL7bFx6IKYGzxQ-28" style="edgeStyle=orthogonalEdgeStyle;rounded=0;orthogonalLoop=1;jettySize=auto;html=1;entryX=-0.011;entryY=0.713;entryDx=0;entryDy=0;entryPerimeter=0;exitX=1.01;exitY=0.565;exitDx=0;exitDy=0;exitPerimeter=0;" edge="1" parent="1" source="cXgWGchafQ5C-qkIUdc8-185" target="QUcATvjl3TqOGIMhLpuG-6">
          <mxGeometry relative="1" as="geometry">
            <Array as="points">
              <mxPoint x="1810" y="591" />
              <mxPoint x="1810" y="765" />
              <mxPoint x="1560" y="765" />
              <mxPoint x="1560" y="942" />
            </Array>
          </mxGeometry>
        </mxCell>
        <mxCell id="iEqDr9kL7bFx6IKYGzxQ-29" style="edgeStyle=orthogonalEdgeStyle;rounded=0;orthogonalLoop=1;jettySize=auto;html=1;entryX=0.005;entryY=0.606;entryDx=0;entryDy=0;entryPerimeter=0;" edge="1" parent="1" source="cXgWGchafQ5C-qkIUdc8-201" target="QUcATvjl3TqOGIMhLpuG-7">
          <mxGeometry relative="1" as="geometry" />
        </mxCell>
        <mxCell id="iEqDr9kL7bFx6IKYGzxQ-30" style="edgeStyle=orthogonalEdgeStyle;rounded=0;orthogonalLoop=1;jettySize=auto;html=1;entryX=-0.006;entryY=0.586;entryDx=0;entryDy=0;entryPerimeter=0;" edge="1" parent="1" source="cXgWGchafQ5C-qkIUdc8-200" target="cXgWGchafQ5C-qkIUdc8-179">
          <mxGeometry relative="1" as="geometry" />
        </mxCell>
        <mxCell id="iEqDr9kL7bFx6IKYGzxQ-31" style="edgeStyle=orthogonalEdgeStyle;rounded=0;orthogonalLoop=1;jettySize=auto;html=1;entryX=0;entryY=0.5;entryDx=0;entryDy=0;entryPerimeter=0;exitX=1.01;exitY=0.557;exitDx=0;exitDy=0;exitPerimeter=0;" edge="1" parent="1" source="cXgWGchafQ5C-qkIUdc8-186" target="cXgWGchafQ5C-qkIUdc8-230">
          <mxGeometry relative="1" as="geometry">
            <Array as="points">
              <mxPoint x="1780" y="621" />
              <mxPoint x="1780" y="510" />
              <mxPoint x="1030" y="510" />
              <mxPoint x="1030" y="350" />
            </Array>
          </mxGeometry>
        </mxCell>
        <mxCell id="iEqDr9kL7bFx6IKYGzxQ-33" style="edgeStyle=orthogonalEdgeStyle;rounded=0;orthogonalLoop=1;jettySize=auto;html=1;entryX=-0.009;entryY=0.486;entryDx=0;entryDy=0;entryPerimeter=0;exitX=1;exitY=0.5;exitDx=0;exitDy=0;exitPerimeter=0;" edge="1" parent="1" source="cXgWGchafQ5C-qkIUdc8-260" target="cXgWGchafQ5C-qkIUdc8-231">
          <mxGeometry relative="1" as="geometry">
            <Array as="points">
              <mxPoint x="2110" y="640" />
              <mxPoint x="2110" y="490" />
              <mxPoint x="1050" y="490" />
              <mxPoint x="1050" y="380" />
            </Array>
          </mxGeometry>
        </mxCell>
        <mxCell id="iEqDr9kL7bFx6IKYGzxQ-34" style="edgeStyle=orthogonalEdgeStyle;rounded=0;orthogonalLoop=1;jettySize=auto;html=1;entryX=0.011;entryY=0.617;entryDx=0;entryDy=0;entryPerimeter=0;exitX=1.006;exitY=0.626;exitDx=0;exitDy=0;exitPerimeter=0;" edge="1" parent="1" source="cXgWGchafQ5C-qkIUdc8-223" target="cXgWGchafQ5C-qkIUdc8-259">
          <mxGeometry relative="1" as="geometry">
            <mxPoint x="1860" y="700" as="targetPoint" />
          </mxGeometry>
        </mxCell>
        <mxCell id="iEqDr9kL7bFx6IKYGzxQ-35" style="edgeStyle=orthogonalEdgeStyle;rounded=0;orthogonalLoop=1;jettySize=auto;html=1;entryX=-0.012;entryY=0.537;entryDx=0;entryDy=0;entryPerimeter=0;exitX=0.99;exitY=0.579;exitDx=0;exitDy=0;exitPerimeter=0;" edge="1" parent="1" source="cXgWGchafQ5C-qkIUdc8-222" target="iEqDr9kL7bFx6IKYGzxQ-6">
          <mxGeometry relative="1" as="geometry">
            <Array as="points">
              <mxPoint x="2180" y="922" />
              <mxPoint x="2180" y="1010" />
              <mxPoint x="900" y="1010" />
              <mxPoint x="900" y="1141" />
            </Array>
          </mxGeometry>
        </mxCell>
        <mxCell id="iEqDr9kL7bFx6IKYGzxQ-36" style="edgeStyle=orthogonalEdgeStyle;rounded=0;orthogonalLoop=1;jettySize=auto;html=1;entryX=0.006;entryY=0.55;entryDx=0;entryDy=0;entryPerimeter=0;exitX=1;exitY=0.5;exitDx=0;exitDy=0;exitPerimeter=0;" edge="1" parent="1" source="cXgWGchafQ5C-qkIUdc8-238" target="iEqDr9kL7bFx6IKYGzxQ-5">
          <mxGeometry relative="1" as="geometry">
            <mxPoint x="850" y="940" as="targetPoint" />
          </mxGeometry>
        </mxCell>
        <mxCell id="iEqDr9kL7bFx6IKYGzxQ-37" style="edgeStyle=orthogonalEdgeStyle;rounded=0;orthogonalLoop=1;jettySize=auto;html=1;entryX=0.006;entryY=0.475;entryDx=0;entryDy=0;entryPerimeter=0;exitX=1.007;exitY=0.549;exitDx=0;exitDy=0;exitPerimeter=0;" edge="1" parent="1" source="cXgWGchafQ5C-qkIUdc8-239" target="cXgWGchafQ5C-qkIUdc8-258">
          <mxGeometry relative="1" as="geometry">
            <Array as="points">
              <mxPoint x="1880" y="411" />
              <mxPoint x="1880" y="670" />
            </Array>
          </mxGeometry>
        </mxCell>
        <mxCell id="iEqDr9kL7bFx6IKYGzxQ-38" style="edgeStyle=orthogonalEdgeStyle;rounded=0;orthogonalLoop=1;jettySize=auto;html=1;entryX=0.001;entryY=0.5;entryDx=0;entryDy=0;entryPerimeter=0;exitX=1.006;exitY=0.561;exitDx=0;exitDy=0;exitPerimeter=0;" edge="1" parent="1" source="cXgWGchafQ5C-qkIUdc8-185" target="cXgWGchafQ5C-qkIUdc8-210">
          <mxGeometry relative="1" as="geometry">
            <mxPoint x="1940" y="600" as="targetPoint" />
            <Array as="points">
              <mxPoint x="1760" y="591" />
              <mxPoint x="1760" y="470" />
              <mxPoint x="1580" y="470" />
              <mxPoint x="1580" y="380" />
            </Array>
          </mxGeometry>
        </mxCell>
        <mxCell id="iEqDr9kL7bFx6IKYGzxQ-40" value="" style="group" vertex="1" connectable="0" parent="1">
          <mxGeometry x="1960" y="820" width="200" height="150" as="geometry" />
        </mxCell>
        <mxCell id="cXgWGchafQ5C-qkIUdc8-224" value="" style="whiteSpace=wrap;html=1;container=0;" parent="iEqDr9kL7bFx6IKYGzxQ-40" vertex="1">
          <mxGeometry y="20" width="200" height="130" as="geometry" />
        </mxCell>
        <mxCell id="cXgWGchafQ5C-qkIUdc8-218" value="opcode_i(6)" style="text;html=1;align=left;verticalAlign=middle;resizable=1;points=[];autosize=0;strokeColor=none;fillColor=none;movable=1;rotatable=1;deletable=1;editable=1;locked=0;connectable=1;container=0;" parent="iEqDr9kL7bFx6IKYGzxQ-40" vertex="1">
          <mxGeometry y="30" width="70" height="20" as="geometry" />
        </mxCell>
        <mxCell id="cXgWGchafQ5C-qkIUdc8-220" value="operande2_i(8)" style="text;html=1;align=left;verticalAlign=middle;resizable=1;points=[];autosize=0;strokeColor=none;fillColor=none;movable=1;rotatable=1;deletable=1;editable=1;locked=0;connectable=1;container=0;" parent="iEqDr9kL7bFx6IKYGzxQ-40" vertex="1">
          <mxGeometry y="90" width="90" height="20" as="geometry" />
        </mxCell>
        <mxCell id="cXgWGchafQ5C-qkIUdc8-219" value="operande1_i(8)" style="text;html=1;align=left;verticalAlign=middle;resizable=1;points=[];autosize=0;strokeColor=none;fillColor=none;movable=1;rotatable=1;deletable=1;editable=1;locked=0;connectable=1;container=0;" parent="iEqDr9kL7bFx6IKYGzxQ-40" vertex="1">
          <mxGeometry y="60" width="90" height="20" as="geometry" />
        </mxCell>
        <mxCell id="cXgWGchafQ5C-qkIUdc8-221" value="CCR_i(4)" style="text;html=1;align=left;verticalAlign=middle;resizable=1;points=[];autosize=0;strokeColor=none;fillColor=none;movable=1;rotatable=1;deletable=1;editable=1;locked=0;connectable=1;container=0;" parent="iEqDr9kL7bFx6IKYGzxQ-40" vertex="1">
          <mxGeometry y="120" width="60" height="20" as="geometry" />
        </mxCell>
        <mxCell id="cXgWGchafQ5C-qkIUdc8-222" value="ALU_o(8)" style="text;html=1;align=right;verticalAlign=middle;resizable=1;points=[];autosize=0;strokeColor=none;fillColor=none;movable=1;rotatable=1;deletable=1;editable=1;locked=0;connectable=1;container=0;" parent="iEqDr9kL7bFx6IKYGzxQ-40" vertex="1">
          <mxGeometry x="110" y="90" width="90" height="20" as="geometry" />
        </mxCell>
        <mxCell id="cXgWGchafQ5C-qkIUdc8-223" value="Z_C_V_N(4)" style="text;html=1;align=right;verticalAlign=middle;resizable=1;points=[];autosize=0;strokeColor=none;fillColor=none;movable=1;rotatable=1;deletable=1;editable=1;locked=0;connectable=1;container=0;" parent="iEqDr9kL7bFx6IKYGzxQ-40" vertex="1">
          <mxGeometry x="110" y="60" width="90" height="20" as="geometry" />
        </mxCell>
        <mxCell id="cXgWGchafQ5C-qkIUdc8-225" value="ALU" style="text;html=1;align=left;verticalAlign=middle;resizable=1;points=[];autosize=0;strokeColor=none;fillColor=none;movable=1;rotatable=1;deletable=1;editable=1;locked=0;connectable=1;container=0;" parent="iEqDr9kL7bFx6IKYGzxQ-40" vertex="1">
          <mxGeometry width="40" height="20" as="geometry" />
        </mxCell>
        <mxCell id="iEqDr9kL7bFx6IKYGzxQ-41" style="edgeStyle=orthogonalEdgeStyle;rounded=0;orthogonalLoop=1;jettySize=auto;html=1;entryX=0;entryY=0.5;entryDx=0;entryDy=0;entryPerimeter=0;exitX=1.004;exitY=0.508;exitDx=0;exitDy=0;exitPerimeter=0;" edge="1" parent="1" source="cXgWGchafQ5C-qkIUdc8-237" target="iEqDr9kL7bFx6IKYGzxQ-18">
          <mxGeometry relative="1" as="geometry">
            <mxPoint x="1670" y="1230" as="targetPoint" />
            <mxPoint x="1270" y="350" as="sourcePoint" />
          </mxGeometry>
        </mxCell>
      </root>
    </mxGraphModel>
  </diagram>
</mxfile>
